<?xml version="1.0" encoding="UTF-8"?>
<svg id="Layer_2" xmlns="http://www.w3.org/2000/svg" version="1.1" viewBox="0 0 1.6 8.2">
  <!-- Generator: Adobe Illustrator 30.1.0, SVG Export Plug-In . SVG Version: 2.1.1 Build 136)  -->
  <defs>
    <style>
      .st0 {
        fill: #333;
      }
    </style>
  </defs>
  <g id="Layer_1-2">
    <g>
      <path class="st0" d="M0,7.4c0,.4.4.8.8.8s.8-.4.8-.8-.4-.8-.8-.8-.8.4-.8.8Z"/>
      <path class="st0" d="M0,4.1c0,.4.4.8.8.8s.8-.4.8-.8-.4-.8-.8-.8-.8.4-.8.8Z"/>
      <path class="st0" d="M0,.8c0,.4.4.8.8.8s.8-.4.8-.8-.4-.8-.8-.8-.8.4-.8.8Z"/>
    </g>
  </g>
</svg>