<?xml version="1.0" encoding="UTF-8"?>
<svg id="Layer_2" data-name="Layer 2" xmlns="http://www.w3.org/2000/svg" viewBox="0 0 14.97 10.26">
  <defs>
    <style>
      .cls-1 {
        fill: #333;
      }
    </style>
  </defs>
  <g id="Layer_1-2" data-name="Layer 1">
    <g>
      <path class="cls-1" d="M4.04.66l.32.28c.3.27.52.35.97.35h3.87c-.13.26-.23.54-.29.84H1.57c-.49,0-.73.25-.73.62v.17h8.01c.08,1.78,1.56,3.21,3.36,3.21.11,0,.22,0,.32-.02v2.55c0,1.04-.54,1.59-1.52,1.59H1.6c-1.06,0-1.6-.54-1.6-1.59V1.7C0,.72.49.24,1.4.24h1.46c.57,0,.81.08,1.18.42Z"/>
      <path class="cls-1" d="M14.97,2.77c0,1.52-1.26,2.77-2.77,2.77s-2.76-1.24-2.76-2.77,1.25-2.77,2.76-2.77,2.77,1.25,2.77,2.77ZM10.5,4.25v.03c.29.46.93.8,1.71.8s1.39-.33,1.7-.8v-.02c-.17-.34-.79-.77-1.7-.77s-1.53.43-1.7.77ZM11.28,1.98c0,.59.39,1.04.92,1.04s.93-.45.93-1.04c0-.53-.4-1-.93-1s-.92.47-.92,1Z"/>
    </g>
  </g>
</svg>