<?xml version="1.0" encoding="UTF-8"?>
<svg id="Layer_1" xmlns="http://www.w3.org/2000/svg" version="1.1" viewBox="0 0 718.88 193.32">
  <g>
    <path d="M298.65,157.88c-9.86,0-18.48-2.02-25.87-6.06-7.39-4.04-13.16-9.72-17.3-17.06-4.14-7.34-6.21-15.99-6.21-25.95s2.04-18.61,6.13-25.95c4.09-7.34,9.85-13.03,17.3-17.06,7.44-4.04,16.09-6.05,25.95-6.05,12.48,0,22.75,3.15,30.83,9.44,8.07,6.29,13.16,14.94,15.26,25.95h-26.26c-1.36-4.09-3.72-7.24-7.08-9.44-3.36-2.2-7.6-3.3-12.74-3.3-7.03,0-12.66,2.31-16.91,6.92-4.25,4.62-6.37,11.11-6.37,19.5s2.15,14.89,6.45,19.5c4.3,4.61,9.91,6.92,16.83,6.92,11.11,0,17.88-4.72,20.29-14.16h26.26c-1.89,11.54-6.87,20.55-14.94,27.05-8.07,6.5-18.61,9.75-31.61,9.75Z"/>
    <path d="M357.15,155.99V23.88h26.11v132.11h-26.11Z"/>
    <path d="M418.02,52.35c-3.99,0-7.37-1.39-10.14-4.17-2.78-2.78-4.17-6.16-4.17-10.14s1.39-7.36,4.17-10.14c2.78-2.78,6.16-4.17,10.14-4.17s7.37,1.39,10.14,4.17c2.78,2.78,4.17,6.16,4.17,10.14s-1.39,7.37-4.17,10.14c-2.78,2.78-6.16,4.17-10.14,4.17ZM404.96,155.99V61.63h26.11v94.36h-26.11Z"/>
    <path d="M459.06,155.99v-68.57h-12.9v-25.79h26.42v15.41h6.61c3.67-5.45,8.28-9.67,13.84-12.66,5.56-2.99,12.48-4.48,20.76-4.48,13.11,0,23.25,3.59,30.43,10.77,7.18,7.18,10.77,16.8,10.77,28.86v56.46h-26.11v-51.59c0-6.92-1.86-12.19-5.58-15.81-3.72-3.62-9.15-5.43-16.28-5.43s-12.56,1.81-16.28,5.43c-3.72,3.62-5.58,8.89-5.58,15.81v51.59h-26.11Z"/>
    <path d="M588.5,52.35c-3.99,0-7.37-1.39-10.14-4.17-2.78-2.78-4.17-6.16-4.17-10.14s1.39-7.36,4.17-10.14c2.78-2.78,6.16-4.17,10.14-4.17s7.37,1.39,10.14,4.17c2.78,2.78,4.17,6.16,4.17,10.14s-1.39,7.37-4.17,10.14c-2.78,2.78-6.16,4.17-10.14,4.17ZM575.44,155.99V61.63h26.11v94.36h-26.11Z"/>
    <path d="M668.39,157.88c-10.28,0-19.21-2.02-26.82-6.06-7.6-4.04-13.5-9.75-17.69-17.14-4.19-7.39-6.29-16.07-6.29-26.03s2.07-18.61,6.21-25.95c4.14-7.34,10.07-13,17.77-16.99,7.71-3.98,16.7-5.98,26.97-5.98s19.16,1.99,26.66,5.98c7.5,3.99,13.31,9.65,17.46,16.99,4.14,7.34,6.21,16.04,6.21,26.11s-2.04,18.64-6.13,26.03c-4.09,7.39-9.93,13.08-17.54,17.06-7.6,3.99-16.54,5.98-26.82,5.98ZM668.39,135.23c7.86,0,13.89-2.38,18.09-7.16,4.19-4.77,6.29-11.25,6.29-19.42s-2.1-14.6-6.29-19.27c-4.19-4.66-10.22-7-18.09-7s-14.08,2.33-18.32,7c-4.25,4.67-6.37,11.09-6.37,19.27s2.12,14.65,6.37,19.42c4.25,4.77,10.35,7.16,18.32,7.16Z"/>
  </g>
  <path d="M55.77,193.32c-4.89,0-8.88-3.98-8.88-8.88v-25.34c0-7-5.68-12.68-12.68-12.68H8.88c-4.89,0-8.88-3.98-8.88-8.88V55.77c0-4.89,3.98-8.88,8.88-8.88h25.34c7,0,12.68-5.68,12.68-12.68V8.88c0-4.89,3.98-8.88,8.88-8.88h56.57c4.89,0,8.88,3.98,8.88,8.88v29.15c0,4.89-3.98,8.88-8.88,8.88h-52.76c-7,0-12.68,5.68-12.68,12.68v74.17c0,7,5.68,12.68,12.68,12.68h74.16c7,0,12.68-5.68,12.68-12.68v-54.51c0-4.25,3.45-7.7,7.7-7.7h31.5c4.25,0,7.7,3.45,7.7,7.7v59.49c0,4.25-3.45,7.7-7.7,7.7h-26.52c-7,0-12.68,5.68-12.68,12.68v25.34c0,4.89-3.98,8.88-8.88,8.88H55.77Z"/>
  <path d="M79.99,120.31c-3.87,0-7.13-3.27-7.13-7.13v-33.18c0-3.87,3.27-7.13,7.13-7.13h15.01c28.01,0,50.72-22.71,50.72-50.72V7.13C145.71,3.27,148.98,0,152.85,0h33.18c3.87,0,7.13,3.27,7.13,7.13v33.18c0,3.87-3.27,7.13-7.13,7.13h-15.01c-28.01,0-50.72,22.71-50.72,50.72v15.01c0,3.87-3.27,7.13-7.13,7.13h-33.18Z"/>
</svg>
