<?xml version="1.0" encoding="UTF-8"?>
<!--Generator: Apple Native CoreSVG 341-->
<!DOCTYPE svg
PUBLIC "-//W3C//DTD SVG 1.1//EN"
       "http://www.w3.org/Graphics/SVG/1.1/DTD/svg11.dtd">
<svg version="1.1" xmlns="http://www.w3.org/2000/svg" xmlns:xlink="http://www.w3.org/1999/xlink" viewBox="0 0 22.9873 22.632">
 <g>
  <rect height="22.632" opacity="0" width="22.9873" x="0" y="0"/>
  <path d="M3.59297 22.626L19.0263 22.626C21.4042 22.626 22.626 21.3921 22.626 19.0569L22.626 3.57578C22.626 1.23389 21.4042 0 19.0263 0L3.59297 0C1.22178 0 0 1.21504 0 3.57578L0 19.0569C0 21.4177 1.22178 22.626 3.59297 22.626ZM3.62901 21.3031C2.12256 21.3031 1.32285 20.5139 1.32285 18.9835L1.32285 3.64248C1.32285 2.11885 2.12256 1.32285 3.62901 1.32285L18.997 1.32285C20.459 1.32285 21.3031 2.11885 21.3031 3.64248L21.3031 18.9835C21.3031 20.5139 20.459 21.3031 18.997 21.3031Z" fill="black" fill-opacity="0.85"/>
  <path d="M14.4128 7.41621L12.6001 9.13155L6.74756 14.9841C6.63438 15.107 6.54815 15.2637 6.54815 15.4459C6.54815 15.8252 6.79102 16.0681 7.16358 16.0681C7.37578 16.0681 7.53545 15.9886 7.6584 15.8724L13.4951 10.0357L15.2044 8.22666C15.8198 7.57383 15.0356 6.83682 14.4128 7.41621ZM14.8823 10.6044L14.8823 13.6588C14.8823 14.0613 15.1252 14.3109 15.4978 14.3109C15.8643 14.3109 16.1071 14.0441 16.1071 13.6483L16.1071 7.19932C16.1071 6.72803 15.844 6.52256 15.4364 6.52256L8.9544 6.52256C8.5586 6.52256 8.30899 6.75938 8.30899 7.11914C8.30899 7.48868 8.56533 7.74131 8.96787 7.74131L12.3764 7.74131L15.0528 7.55059Z" fill="black" fill-opacity="0.85"/>
 </g>
</svg>
