<?xml version="1.0" encoding="UTF-8"?>
<!--Generator: Apple Native CoreSVG 341-->
<!DOCTYPE svg
PUBLIC "-//W3C//DTD SVG 1.1//EN"
       "http://www.w3.org/Graphics/SVG/1.1/DTD/svg11.dtd">
<svg version="1.1" xmlns="http://www.w3.org/2000/svg" xmlns:xlink="http://www.w3.org/1999/xlink" viewBox="0 0 30.5346 24.1535">
 <g>
  <rect height="24.1535" opacity="0" width="30.5346" x="0" y="0"/>
  <path d="M25.3958 9.05918C24.5832 9.05918 23.9208 8.39678 23.9208 7.57442C23.9208 6.76182 24.5832 6.09942 25.3958 6.09942C26.2114 6.09942 26.8806 6.76182 26.8806 7.57442C26.8806 8.39678 26.2114 9.05918 25.3958 9.05918ZM3.59297 23.4056L26.5803 23.4056C28.9515 23.4056 30.1732 22.1784 30.1732 19.8365L30.1732 6.57754C30.1732 4.24238 28.9515 3.0085 26.5803 3.0085L22.8425 3.0085C21.8185 3.0085 21.5504 2.90068 20.9184 2.19424L19.8499 0.998828C19.1872 0.274512 18.6332 0 17.4 0L12.5359 0C11.3027 0 10.7487 0.274512 10.0891 0.998828L9.01758 2.19424C8.41113 2.8751 8.10772 3.0085 7.09346 3.0085L3.59297 3.0085C1.22178 3.0085 0 4.24238 0 6.57754L0 19.8365C0 22.1784 1.22178 23.4056 3.59297 23.4056ZM15.0885 20.019C11.2422 20.019 8.14483 16.9314 8.14483 13.0626C8.14483 9.18399 11.2422 6.09942 15.0885 6.09942C18.9536 6.09942 22.0352 9.18399 22.0352 13.0626C22.0352 16.9314 18.9348 20.019 15.0885 20.019ZM15.0885 18.7259C18.2099 18.7259 20.7359 16.2005 20.7359 13.0626C20.7359 9.91494 18.2099 7.38956 15.0885 7.38956C11.9634 7.38956 9.43731 9.91494 9.43731 13.0626C9.43731 16.2005 11.9671 18.7259 15.0885 18.7259Z" fill="black" fill-opacity="0.85"/>
 </g>
</svg>
