<?xml version="1.0" encoding="UTF-8"?>
<svg id="Layer_1" xmlns="http://www.w3.org/2000/svg" version="1.1" viewBox="0 0 1066.38 193.32">
  <!-- Generator: Adobe Illustrator 30.0.0, SVG Export Plug-In . SVG Version: 2.1.1 Build 123)  -->
  <g>
    <path d="M288.37,157.88c-9.86,0-18.48-2.02-25.87-6.06-7.39-4.04-13.16-9.72-17.3-17.06-4.14-7.34-6.21-15.99-6.21-25.95s2.04-18.61,6.13-25.95c4.09-7.34,9.85-13.03,17.3-17.06,7.44-4.04,16.09-6.05,25.95-6.05,12.48,0,22.75,3.15,30.83,9.44,8.07,6.29,13.16,14.94,15.26,25.95h-26.26c-1.36-4.09-3.72-7.24-7.08-9.44-3.36-2.2-7.6-3.3-12.74-3.3-7.03,0-12.66,2.31-16.91,6.92-4.25,4.62-6.37,11.11-6.37,19.5s2.15,14.89,6.45,19.5c4.3,4.61,9.91,6.92,16.83,6.92,11.11,0,17.88-4.72,20.29-14.16h26.26c-1.89,11.54-6.87,20.55-14.94,27.05-8.07,6.5-18.61,9.75-31.61,9.75Z"/>
    <path d="M346.87,155.99V23.88h26.11v132.11h-26.11Z"/>
    <path d="M407.74,52.35c-3.99,0-7.37-1.39-10.14-4.17-2.78-2.78-4.17-6.16-4.17-10.14s1.39-7.36,4.17-10.14c2.78-2.78,6.16-4.17,10.14-4.17s7.37,1.39,10.14,4.17c2.78,2.78,4.17,6.16,4.17,10.14s-1.39,7.37-4.17,10.14c-2.78,2.78-6.16,4.17-10.14,4.17ZM394.68,155.99V61.63h26.11v94.36h-26.11Z"/>
    <path d="M448.78,155.99v-68.57h-12.9v-25.79h26.42v15.41h6.61c3.67-5.45,8.28-9.67,13.84-12.66,5.56-2.99,12.48-4.48,20.76-4.48,13.11,0,23.25,3.59,30.43,10.77,7.18,7.18,10.77,16.8,10.77,28.86v56.46h-26.11v-51.59c0-6.92-1.86-12.19-5.58-15.81-3.72-3.62-9.15-5.43-16.28-5.43s-12.56,1.81-16.28,5.43c-3.72,3.62-5.58,8.89-5.58,15.81v51.59h-26.11Z"/>
    <path d="M578.22,52.35c-3.99,0-7.37-1.39-10.14-4.17-2.78-2.78-4.17-6.16-4.17-10.14s1.39-7.36,4.17-10.14c2.78-2.78,6.16-4.17,10.14-4.17s7.37,1.39,10.14,4.17c2.78,2.78,4.17,6.16,4.17,10.14s-1.39,7.37-4.17,10.14c-2.78,2.78-6.16,4.17-10.14,4.17ZM565.16,155.99V61.63h26.11v94.36h-26.11Z"/>
    <path d="M658.11,157.88c-10.28,0-19.21-2.02-26.82-6.06-7.6-4.04-13.5-9.75-17.69-17.14-4.19-7.39-6.29-16.07-6.29-26.03s2.07-18.61,6.21-25.95c4.14-7.34,10.07-13,17.77-16.99,7.71-3.98,16.7-5.98,26.97-5.98s19.16,1.99,26.66,5.98c7.5,3.99,13.31,9.65,17.46,16.99,4.14,7.34,6.21,16.04,6.21,26.11s-2.04,18.64-6.13,26.03c-4.09,7.39-9.93,13.08-17.54,17.06-7.6,3.99-16.54,5.98-26.82,5.98ZM658.11,135.23c7.86,0,13.89-2.38,18.09-7.16,4.19-4.77,6.29-11.25,6.29-19.42s-2.1-14.6-6.29-19.27c-4.19-4.66-10.22-7-18.09-7s-14.08,2.33-18.32,7c-4.25,4.67-6.37,11.09-6.37,19.27s2.12,14.65,6.37,19.42c4.25,4.77,10.35,7.16,18.32,7.16Z"/>
    <path d="M728.41,155.99V23.88h14.78v132.11h-14.78Z"/>
    <path d="M798.4,157.72c-10.49,0-18.77-2.65-24.85-7.94-6.08-5.29-9.12-12.13-9.12-20.52,0-9.02,2.96-15.99,8.89-20.92,5.92-4.93,14.49-7.39,25.71-7.39h33.97v-4.4c0-16.15-8.65-24.22-25.95-24.22-14.05,0-22.49,5.35-25.32,16.04h-15.1c1.47-9.02,5.84-16.04,13.13-21.07,7.29-5.03,16.54-7.55,27.76-7.55,12.79,0,22.59,3.07,29.41,9.2,6.81,6.13,10.22,14.97,10.22,26.5v44.82h7.23v15.73h-16.36v-14.15h-6.61c-3.25,4.82-7.76,8.68-13.53,11.56-5.77,2.88-12.27,4.33-19.5,4.33ZM800.28,145.45c5.98,0,11.45-1.26,16.43-3.77,4.98-2.52,8.94-5.9,11.87-10.14,2.93-4.25,4.4-8.94,4.4-14.08v-5.19h-32.87c-14.58,0-21.86,5.45-21.86,16.36,0,5.14,1.97,9.23,5.9,12.27,3.93,3.04,9.3,4.56,16.12,4.56Z"/>
    <path d="M927.04,157.88c-7.55,0-14-1.36-19.34-4.09-5.35-2.72-9.59-6.71-12.74-11.95h-6.61v14.15h-16.36v-15.73h7.86V23.88h14.78v53.79h.63c2.93-5.87,7.26-10.33,12.97-13.37,5.71-3.04,12.4-4.56,20.05-4.56,8.91,0,16.59,1.97,23.04,5.9s11.4,9.57,14.86,16.91c3.46,7.34,5.19,16.1,5.19,26.26s-1.76,18.93-5.27,26.26c-3.51,7.34-8.57,12.97-15.18,16.91s-14.58,5.9-23.91,5.9ZM925,145.3c9.96,0,17.72-3.2,23.28-9.59,5.56-6.39,8.33-15.36,8.33-26.89s-2.78-20.5-8.33-26.89c-5.56-6.39-13.32-9.59-23.28-9.59-9.12,0-16.46,2.62-22.02,7.86-5.56,5.24-8.33,12.22-8.33,20.92v15.41c0,8.7,2.78,15.68,8.33,20.92,5.56,5.24,12.9,7.86,22.02,7.86Z"/>
    <path d="M1028.17,157.88c-12.79,0-22.91-2.65-30.35-7.94-7.45-5.29-11.54-12.71-12.27-22.25h14.78c.73,6.08,3.41,10.59,8.02,13.53,4.61,2.94,11.38,4.4,20.29,4.4,16.04,0,24.06-5.14,24.06-15.41,0-4.19-1.23-7.42-3.7-9.67-2.46-2.25-6.63-3.91-12.5-4.95l-20.6-3.77c-17.09-3.15-25.64-11.32-25.64-24.54,0-8.49,3.2-15.2,9.59-20.13,6.39-4.93,15.15-7.39,26.26-7.39s20.58,2.52,27.44,7.55c6.87,5.03,10.83,12.06,11.87,21.07h-14.47c-1.16-5.56-3.77-9.67-7.86-12.35-4.09-2.67-9.8-4.01-17.14-4.01s-12.42,1.23-16.2,3.7c-3.77,2.46-5.66,6.05-5.66,10.77,0,3.57,1.23,6.37,3.7,8.41,2.46,2.04,6.47,3.59,12.03,4.64l20.45,3.77c9.02,1.68,15.62,4.62,19.82,8.81,4.19,4.19,6.29,9.86,6.29,16.99,0,9.12-3.3,16.2-9.91,21.23-6.61,5.03-16.04,7.55-28.31,7.55Z"/>
  </g>
  <path d="M55.77,193.32c-4.89,0-8.88-3.98-8.88-8.88v-25.34c0-7-5.68-12.68-12.68-12.68H8.88c-4.89,0-8.88-3.98-8.88-8.88V55.77c0-4.89,3.98-8.88,8.88-8.88h25.34c7,0,12.68-5.68,12.68-12.68V8.88c0-4.89,3.98-8.88,8.88-8.88h56.57c4.89,0,8.88,3.98,8.88,8.88v29.15c0,4.89-3.98,8.88-8.88,8.88h-52.76c-7,0-12.68,5.68-12.68,12.68v74.17c0,7,5.68,12.68,12.68,12.68h74.16c7,0,12.68-5.68,12.68-12.68v-54.51c0-4.25,3.45-7.7,7.7-7.7h31.5c4.25,0,7.7,3.45,7.7,7.7v59.49c0,4.25-3.45,7.7-7.7,7.7h-26.52c-7,0-12.68,5.68-12.68,12.68v25.34c0,4.89-3.98,8.88-8.88,8.88H55.77Z"/>
  <path d="M79.99,120.31c-3.87,0-7.13-3.27-7.13-7.13v-33.18c0-3.87,3.27-7.13,7.13-7.13h15.01c28.01,0,50.72-22.71,50.72-50.72V7.13C145.71,3.27,148.98,0,152.85,0h33.18c3.87,0,7.13,3.27,7.13,7.13v33.18c0,3.87-3.27,7.13-7.13,7.13h-15.01c-28.01,0-50.72,22.71-50.72,50.72v15.01c0,3.87-3.27,7.13-7.13,7.13h-33.18Z"/>
</svg>