<?xml version="1.0" encoding="UTF-8"?>
<svg id="Layer_1" xmlns="http://www.w3.org/2000/svg" version="1.1" viewBox="0 0 1024 1024">
  <!-- Generator: Adobe Illustrator 30.0.0, SVG Export Plug-In . SVG Version: 2.1.1 Build 123)  -->
  <g>
    <path d="M61.12,924.75c-12.2,0-22.87-2.5-32.02-7.49-9.15-4.99-16.29-12.03-21.41-21.12-5.13-9.08-7.69-19.79-7.69-32.12s2.53-23.03,7.59-32.12c5.06-9.08,12.19-16.12,21.41-21.12,9.21-4.99,19.92-7.49,32.12-7.49,15.44,0,28.16,3.89,38.15,11.68,9.99,7.79,16.28,18.49,18.88,32.12h-32.51c-1.69-5.06-4.61-8.95-8.76-11.68-4.16-2.73-9.41-4.09-15.77-4.09-8.69,0-15.67,2.86-20.92,8.56-5.26,5.71-7.88,13.76-7.88,24.14s2.66,18.43,7.98,24.14c5.32,5.71,12.26,8.56,20.83,8.56,13.75,0,22.12-5.84,25.11-17.52h32.51c-2.34,14.28-8.5,25.44-18.49,33.48-9.99,8.05-23.03,12.07-39.12,12.07Z"/>
    <path d="M133.52,922.41v-163.5h32.31v163.5h-32.31Z"/>
    <path d="M208.85,794.14c-4.93,0-9.12-1.72-12.55-5.16-3.44-3.44-5.16-7.62-5.16-12.56s1.72-9.11,5.16-12.56c3.44-3.44,7.62-5.16,12.55-5.16s9.12,1.72,12.56,5.16c3.44,3.44,5.16,7.63,5.16,12.56s-1.72,9.12-5.16,12.56c-3.44,3.44-7.63,5.16-12.56,5.16ZM192.69,922.41v-116.79h32.31v116.79h-32.31Z"/>
    <path d="M259.65,922.41v-84.86h-15.96v-31.92h32.7v19.08h8.18c4.54-6.75,10.25-11.97,17.13-15.67,6.88-3.7,15.44-5.55,25.69-5.55,16.22,0,28.77,4.45,37.66,13.33,8.89,8.89,13.33,20.8,13.33,35.72v69.88h-32.31v-63.84c0-8.56-2.3-15.08-6.91-19.56-4.61-4.48-11.32-6.72-20.15-6.72s-15.54,2.24-20.15,6.72c-4.61,4.48-6.91,11-6.91,19.56v63.84h-32.31Z"/>
    <path d="M419.84,794.14c-4.93,0-9.12-1.72-12.55-5.16-3.44-3.44-5.16-7.62-5.16-12.56s1.72-9.11,5.16-12.56c3.44-3.44,7.62-5.16,12.55-5.16s9.12,1.72,12.56,5.16c3.44,3.44,5.16,7.63,5.16,12.56s-1.72,9.12-5.16,12.56c-3.44,3.44-7.63,5.16-12.56,5.16ZM403.68,922.41v-116.79h32.31v116.79h-32.31Z"/>
    <path d="M518.72,924.75c-12.72,0-23.78-2.5-33.19-7.49-9.41-4.99-16.71-12.07-21.9-21.22-5.19-9.15-7.78-19.88-7.78-32.21s2.56-23.03,7.69-32.12c5.12-9.08,12.46-16.09,21.99-21.02,9.54-4.93,20.66-7.4,33.38-7.4s23.71,2.47,32.99,7.4c9.28,4.93,16.48,11.94,21.61,21.02,5.12,9.08,7.69,19.85,7.69,32.31s-2.53,23.07-7.59,32.21c-5.06,9.15-12.3,16.19-21.7,21.12-9.41,4.93-20.47,7.4-33.19,7.4ZM518.72,896.72c9.73,0,17.19-2.95,22.38-8.86,5.19-5.9,7.79-13.92,7.79-24.04s-2.6-18.07-7.79-23.84c-5.19-5.77-12.65-8.66-22.38-8.66s-17.42,2.89-22.68,8.66c-5.26,5.78-7.88,13.72-7.88,23.84s2.63,18.14,7.88,24.04c5.26,5.91,12.81,8.86,22.68,8.86Z"/>
    <path d="M605.72,922.41v-163.5h18.3v163.5h-18.3Z"/>
    <path d="M692.33,924.55c-12.98,0-23.23-3.28-30.75-9.83-7.53-6.55-11.29-15.02-11.29-25.4,0-11.16,3.66-19.79,11-25.89,7.33-6.1,17.94-9.15,31.83-9.15h42.04v-5.45c0-19.98-10.71-29.97-32.12-29.97-17.39,0-27.83,6.62-31.34,19.85h-18.69c1.82-11.16,7.23-19.85,16.25-26.08,9.02-6.23,20.47-9.34,34.35-9.34,15.83,0,27.96,3.8,36.4,11.39,8.43,7.59,12.65,18.52,12.65,32.8v55.47h8.95v19.46h-20.24v-17.52h-8.18c-4.02,5.97-9.6,10.74-16.74,14.31-7.14,3.57-15.18,5.35-24.14,5.35ZM694.67,909.37c7.4,0,14.18-1.56,20.34-4.67,6.16-3.11,11.06-7.3,14.7-12.56,3.63-5.26,5.45-11.06,5.45-17.42v-6.42h-40.68c-18.04,0-27.06,6.75-27.06,20.24,0,6.36,2.43,11.42,7.3,15.18,4.87,3.77,11.51,5.65,19.95,5.65Z"/>
    <path d="M851.55,924.75c-9.34,0-17.32-1.69-23.94-5.06-6.62-3.37-11.87-8.3-15.77-14.79h-8.18v17.52h-20.24v-19.46h9.73v-144.04h18.3v66.57h.78c3.63-7.26,8.98-12.78,16.06-16.54,7.07-3.76,15.34-5.64,24.82-5.64,11.03,0,20.53,2.43,28.51,7.3,7.98,4.87,14.11,11.84,18.39,20.92,4.28,9.08,6.42,19.92,6.42,32.51s-2.17,23.42-6.52,32.51c-4.35,9.08-10.61,16.06-18.78,20.92-8.18,4.87-18.04,7.3-29.59,7.3ZM849.02,909.18c12.33,0,21.93-3.96,28.81-11.87,6.88-7.91,10.32-19.01,10.32-33.28s-3.44-25.37-10.32-33.28c-6.88-7.91-16.48-11.87-28.81-11.87-11.29,0-20.37,3.25-27.25,9.73-6.88,6.49-10.32,15.12-10.32,25.89v19.08c0,10.77,3.44,19.4,10.32,25.89,6.88,6.49,15.96,9.73,27.25,9.73Z"/>
    <path d="M976.7,924.75c-15.83,0-28.35-3.28-37.57-9.83-9.22-6.55-14.28-15.73-15.18-27.54h18.3c.91,7.53,4.22,13.11,9.93,16.74,5.71,3.63,14.08,5.45,25.11,5.45,19.85,0,29.78-6.36,29.78-19.08,0-5.19-1.53-9.18-4.57-11.97-3.05-2.79-8.21-4.83-15.48-6.13l-25.5-4.67c-21.15-3.89-31.73-14.02-31.73-30.37,0-10.51,3.96-18.81,11.87-24.91,7.91-6.1,18.75-9.15,32.51-9.15s25.47,3.11,33.97,9.34c8.5,6.23,13.4,14.92,14.7,26.08h-17.91c-1.43-6.88-4.67-11.97-9.73-15.28-5.06-3.31-12.13-4.96-21.22-4.96s-15.38,1.53-20.05,4.57c-4.67,3.05-7.01,7.49-7.01,13.33,0,4.41,1.52,7.88,4.57,10.41,3.05,2.53,8.01,4.45,14.89,5.74l25.3,4.67c11.16,2.08,19.33,5.71,24.53,10.9,5.19,5.19,7.79,12.2,7.79,21.02,0,11.29-4.09,20.05-12.26,26.28-8.18,6.23-19.85,9.34-35.04,9.34Z"/>
  </g>
  <g>
    <path d="M385.28,698.4c-15.17,0-27.51-12.34-27.51-27.51v-78.55c0-21.7-17.59-39.3-39.3-39.3h-78.55c-15.17,0-27.51-12.34-27.51-27.51v-253.43c0-15.17,12.34-27.51,27.51-27.51h78.55c21.7,0,39.3-17.59,39.3-39.3v-78.55c0-15.17,12.34-27.51,27.51-27.51h175.32c15.17,0,27.51,12.34,27.51,27.51v90.34c0,15.17-12.34,27.51-27.51,27.51h-163.53c-21.7,0-39.3,17.59-39.3,39.3v229.86c0,21.7,17.59,39.3,39.3,39.3h229.86c21.7,0,39.3-17.59,39.3-39.3v-168.93c0-13.16,10.7-23.86,23.86-23.86h97.63c13.16,0,23.86,10.71,23.86,23.86v184.37c0,13.16-10.7,23.86-23.86,23.86h-82.19c-21.7,0-39.3,17.59-39.3,39.3v78.55c0,15.17-12.34,27.51-27.51,27.51h-253.44Z"/>
    <path d="M460.34,472.12c-11.99,0-22.11-10.12-22.11-22.11v-102.85c0-11.99,10.12-22.11,22.11-22.11h46.51c86.81,0,157.19-70.37,157.19-157.18v-46.51c0-11.98,10.12-22.11,22.11-22.11h102.85c11.98,0,22.11,10.12,22.11,22.11v102.85c0,11.98-10.12,22.11-22.11,22.11h-46.51c-86.81,0-157.19,70.37-157.19,157.18v46.51c0,11.99-10.12,22.11-22.11,22.11h-102.85Z"/>
  </g>
</svg>