<?xml version="1.0" encoding="UTF-8"?>
<svg id="Layer_1" xmlns="http://www.w3.org/2000/svg" version="1.1" viewBox="0 0 599.15 599.15">
  <!-- Generator: Adobe Illustrator 30.0.0, SVG Export Plug-In . SVG Version: 2.1.1 Build 123)  -->
  <path d="M172.86,599.15c-15.17,0-27.51-12.34-27.51-27.51v-78.55c0-21.7-17.59-39.3-39.3-39.3H27.51c-15.17,0-27.51-12.34-27.51-27.51v-253.43c0-15.17,12.34-27.51,27.51-27.51h78.55c21.7,0,39.3-17.59,39.3-39.3V27.51c0-15.17,12.34-27.51,27.51-27.51h175.32c15.17,0,27.51,12.34,27.51,27.51v90.34c0,15.17-12.34,27.51-27.51,27.51h-163.53c-21.7,0-39.3,17.59-39.3,39.3v229.86c0,21.7,17.59,39.3,39.3,39.3h229.86c21.7,0,39.3-17.59,39.3-39.3v-168.93c0-13.16,10.7-23.86,23.86-23.86h97.63c13.16,0,23.86,10.71,23.86,23.86v184.37c0,13.16-10.7,23.86-23.86,23.86h-82.19c-21.7,0-39.3,17.59-39.3,39.3v78.55c0,15.17-12.34,27.51-27.51,27.51h-253.44Z"/>
  <path d="M247.91,372.87c-11.99,0-22.11-10.12-22.11-22.11v-102.85c0-11.99,10.12-22.11,22.11-22.11h46.51c86.81,0,157.19-70.37,157.19-157.18V22.11C451.61,10.12,461.73,0,473.71,0h102.85c11.98,0,22.11,10.12,22.11,22.11v102.85c0,11.98-10.12,22.11-22.11,22.11h-46.51c-86.81,0-157.19,70.37-157.19,157.18v46.51c0,11.99-10.12,22.11-22.11,22.11h-102.85Z"/>
</svg>